<?xml version="1.0" encoding="utf-8"?>
<!-- Generator: Adobe Illustrator 16.0.3, SVG Export Plug-In . SVG Version: 6.00 Build 0)  -->
<!DOCTYPE svg PUBLIC "-//W3C//DTD SVG 1.1//EN" "http://www.w3.org/Graphics/SVG/1.1/DTD/svg11.dtd">
<svg version="1.1" id="Layer_1" xmlns="http://www.w3.org/2000/svg" xmlns:xlink="http://www.w3.org/1999/xlink" x="0px" y="0px"
	 width="184px" height="56px" viewBox="0 0 184 56" enable-background="new 0 0 184 56" xml:space="preserve">
<g>
	<g>
		<path fill="#FFFFFF" stroke="#FFFFFF" stroke-width="0.8872" stroke-miterlimit="10" d="M2,15.313h9.884
			c9.123,0,15.12,5.449,15.12,14.867c0,9.461-5.997,14.953-15.12,14.953H2V15.313z M11.588,41.498
			c6.715,0,11.106-3.968,11.106-11.318c0-7.308-4.432-11.235-11.106-11.235H6.181v22.554H11.588z"/>
		<path fill="#FFFFFF" stroke="#FFFFFF" stroke-width="1.7842" stroke-miterlimit="10" d="M2,15.313h9.884
			c9.123,0,15.12,5.449,15.12,14.867c0,9.461-5.997,14.953-15.12,14.953H2V15.313z M11.588,41.498
			c6.715,0,11.106-3.968,11.106-11.318c0-7.308-4.432-11.235-11.106-11.235H6.181v22.554H11.588z"/>
		<path fill="#FFFFFF" stroke="#FFFFFF" stroke-width="0.8872" stroke-miterlimit="10" d="M41.772,31.783h0.929v-0.377
			c0-3.507-1.986-4.69-4.688-4.69c-3.295,0-5.957,2.07-5.957,2.07l-1.69-2.999c0,0,3.086-2.536,7.983-2.536
			c5.408,0,8.448,2.958,8.448,8.365v13.516h-3.8v-2.029c0-0.971,0.083-1.688,0.083-1.688h-0.083c0,0-1.732,4.222-6.843,4.222
			c-3.675,0-7.265-2.237-7.265-6.505C28.89,32.082,38.181,31.783,41.772,31.783 M37.041,42.344c3.463,0,5.7-3.634,5.7-6.799v-0.676
			h-1.055c-3.084,0-8.657,0.211-8.657,4.054C33.029,40.654,34.38,42.344,37.041,42.344"/>
		<path fill="#FFFFFF" stroke="#FFFFFF" stroke-width="1.7842" stroke-miterlimit="10" d="M41.772,31.783h0.929v-0.377
			c0-3.507-1.986-4.69-4.688-4.69c-3.295,0-5.957,2.07-5.957,2.07l-1.69-2.999c0,0,3.086-2.536,7.983-2.536
			c5.408,0,8.448,2.958,8.448,8.365v13.516h-3.8v-2.029c0-0.971,0.083-1.688,0.083-1.688h-0.083c0,0-1.732,4.222-6.843,4.222
			c-3.675,0-7.265-2.237-7.265-6.505C28.89,32.082,38.181,31.783,41.772,31.783z M37.041,42.344c3.463,0,5.7-3.634,5.7-6.799v-0.676
			h-1.055c-3.084,0-8.657,0.211-8.657,4.054C33.029,40.654,34.38,42.344,37.041,42.344z"/>
		<path fill="#FFFFFF" stroke="#FFFFFF" stroke-width="0.8872" stroke-miterlimit="10" d="M51.073,15.313h4.141v4.182h-4.141V15.313
			z M51.117,23.759h4.097v21.374h-4.097V23.759z"/>
		<path fill="#FFFFFF" stroke="#FFFFFF" stroke-width="1.7842" stroke-miterlimit="10" d="M51.073,15.313h4.141v4.182h-4.141V15.313
			z M51.117,23.759h4.097v21.374h-4.097V23.759z"/>
		<path fill="#FFFFFF" stroke="#FFFFFF" stroke-width="0.8872" stroke-miterlimit="10" d="M59.544,15.313h4.097v23.273
			c0,2.576,1.012,3.041,2.28,3.041c0.38,0,0.718-0.043,0.718-0.043v3.633c0,0-0.633,0.084-1.354,0.084
			c-2.32,0-5.742-0.633-5.742-5.996V15.313z"/>
		<path fill="#FFFFFF" stroke="#FFFFFF" stroke-width="1.7842" stroke-miterlimit="10" d="M59.544,15.313h4.097v23.273
			c0,2.576,1.012,3.041,2.28,3.041c0.38,0,0.718-0.043,0.718-0.043v3.633c0,0-0.633,0.084-1.354,0.084
			c-2.32,0-5.742-0.633-5.742-5.996V15.313z"/>
		<path fill="#FFFFFF" stroke="#FFFFFF" stroke-width="0.8872" stroke-miterlimit="10" d="M67.686,49.566
			c0,0,1.184,0.887,2.494,0.887c1.646,0,3.042-1.182,3.843-3.125l1.055-2.449l-8.953-21.12h4.604l5.364,13.982
			c0.423,1.098,0.804,2.577,0.804,2.577h0.083c0,0,0.339-1.438,0.718-2.535l5.196-14.024h4.436L77.317,48.975
			c-1.309,3.296-3.928,5.027-6.926,5.027c-2.408,0-4.14-1.309-4.14-1.309L67.686,49.566z"/>
		<path fill="#FFFFFF" stroke="#FFFFFF" stroke-width="1.7842" stroke-miterlimit="10" d="M67.686,49.566
			c0,0,1.184,0.887,2.494,0.887c1.646,0,3.042-1.182,3.843-3.125l1.055-2.449l-8.953-21.12h4.604l5.364,13.982
			c0.423,1.098,0.804,2.577,0.804,2.577h0.083c0,0,0.339-1.438,0.718-2.535l5.196-14.024h4.436L77.317,48.975
			c-1.309,3.296-3.928,5.027-6.926,5.027c-2.408,0-4.14-1.309-4.14-1.309L67.686,49.566z"/>
		<path fill="#FFFFFF" stroke="#FFFFFF" stroke-width="0.8872" stroke-miterlimit="10" d="M90.315,15.313h4.181v19.259
			c0,4.561,2.958,7.223,7.519,7.223c4.605,0,7.604-2.662,7.604-7.307V15.313h4.181v19.259c0,6.633-4.771,11.065-11.742,11.065
			c-6.968,0-11.742-4.433-11.742-11.065V15.313z"/>
		<path fill="#FFFFFF" stroke="#FFFFFF" stroke-width="1.7842" stroke-miterlimit="10" d="M90.315,15.313h4.181v19.259
			c0,4.561,2.958,7.223,7.519,7.223c4.605,0,7.604-2.662,7.604-7.307V15.313h4.181v19.259c0,6.633-4.771,11.065-11.742,11.065
			c-6.968,0-11.742-4.433-11.742-11.065V15.313z"/>
		<path fill="#FFFFFF" stroke="#FFFFFF" stroke-width="0.8872" stroke-miterlimit="10" d="M118.802,39.598
			c0,0,2.408,2.494,6.122,2.494c1.775,0,3.549-0.93,3.549-2.662c0-3.928-10.98-3.127-10.98-10.096c0-3.885,3.464-6.082,7.729-6.082
			c4.688,0,6.884,2.366,6.884,2.366l-1.648,3.083c0,0-1.898-1.901-5.277-1.901c-1.774,0-3.507,0.762-3.507,2.62
			c0,3.844,10.981,2.997,10.981,10.01c0,3.549-3.041,6.209-7.729,6.209c-5.236,0-8.108-3.125-8.108-3.125L118.802,39.598z"/>
		<path fill="#FFFFFF" stroke="#FFFFFF" stroke-width="1.7842" stroke-miterlimit="10" d="M118.802,39.598
			c0,0,2.408,2.494,6.122,2.494c1.775,0,3.549-0.93,3.549-2.662c0-3.928-10.98-3.127-10.98-10.096c0-3.885,3.464-6.082,7.729-6.082
			c4.688,0,6.884,2.366,6.884,2.366l-1.648,3.083c0,0-1.898-1.901-5.277-1.901c-1.774,0-3.507,0.762-3.507,2.62
			c0,3.844,10.981,2.997,10.981,10.01c0,3.549-3.041,6.209-7.729,6.209c-5.236,0-8.108-3.125-8.108-3.125L118.802,39.598z"/>
		<path fill="#FFFFFF" stroke="#FFFFFF" stroke-width="0.8872" stroke-miterlimit="10" d="M145.196,23.252
			c6.042,0,9.254,4.479,9.254,10.011c0,0.55-0.13,1.772-0.13,1.772h-15.585c0.211,4.69,3.548,7.056,7.348,7.056
			c3.677,0,6.338-2.494,6.338-2.494l1.688,2.998c0,0-3.167,3.042-8.276,3.042c-6.718,0-11.32-4.855-11.32-11.19
			C134.512,27.645,139.114,23.252,145.196,23.252 M150.267,31.953c-0.127-3.676-2.408-5.449-5.153-5.449
			c-3.126,0-5.66,1.942-6.251,5.449H150.267z"/>
		<path fill="#FFFFFF" stroke="#FFFFFF" stroke-width="1.7842" stroke-miterlimit="10" d="M145.196,23.252
			c6.042,0,9.254,4.479,9.254,10.011c0,0.55-0.13,1.772-0.13,1.772h-15.585c0.211,4.69,3.548,7.056,7.348,7.056
			c3.677,0,6.338-2.494,6.338-2.494l1.688,2.998c0,0-3.167,3.042-8.276,3.042c-6.718,0-11.32-4.855-11.32-11.19
			C134.512,27.645,139.114,23.252,145.196,23.252z M150.267,31.953c-0.127-3.676-2.408-5.449-5.153-5.449
			c-3.126,0-5.66,1.942-6.251,5.449H150.267z"/>
		<path fill="#FFFFFF" stroke="#FFFFFF" stroke-width="0.8872" stroke-miterlimit="10" d="M182,10.831
			c0-4.878-4.188-8.833-9.356-8.833c-3.115,0-5.874,1.439-7.576,3.647c1.544-1.058,3.444-1.685,5.494-1.685
			c5.169,0,9.359,3.955,9.359,8.832c0,1.94-0.661,3.729-1.783,5.184C180.479,16.372,182,13.769,182,10.831"/>
		<path fill="#FFFFFF" stroke="#FFFFFF" stroke-width="0.8872" stroke-miterlimit="10" d="M178.447,17.528
			c0-7.815-5.505-14.152-14.997-14.152c-4.992,0-9.412,2.304-12.138,5.844c2.471-1.695,5.514-2.7,8.805-2.7
			c8.282,0,14.997,6.338,14.997,14.155c0,3.103-1.063,5.977-2.857,8.309C176.008,26.411,178.447,22.239,178.447,17.528"/>
		<path fill="#FFFFFF" stroke="#FFFFFF" stroke-width="0.8872" stroke-miterlimit="10" d="M171.951,28.294
			c0-11.737-10.082-21.252-22.519-21.252c-7.494,0-14.13,3.46-18.224,8.774c3.712-2.544,8.279-4.051,13.222-4.051
			c12.438,0,22.518,9.515,22.518,21.249c0,4.665-1.597,8.974-4.296,12.479C168.284,41.629,171.951,35.367,171.951,28.294"/>
	</g>
	<g>
		<path fill="#FFFFFF" d="M156.016,23.597v2.799h-0.631v-2.799h-0.854v-0.603h2.337v0.603H156.016z"/>
		<path fill="#FFFFFF" d="M159.156,25.965h-0.452l-0.764-1.741l0.022,2.171h-0.617v-3.401h0.69l0.894,2.083l0.892-2.083h0.69v3.401
			h-0.615l0.021-2.188L159.156,25.965z"/>
	</g>
</g>
</svg>
